<mxfile host="app.diagrams.net" modified="2023-11-20T09:30:01.029Z" agent="Mozilla/5.0 (Windows NT 10.0; Win64; x64) AppleWebKit/537.36 (KHTML, like Gecko) Chrome/119.0.0.0 Safari/537.36 Edg/119.0.0.0" etag="PaJeitqJEo8T4xfRARhY" version="22.1.3" type="github">
  <diagram name="第 1 页" id="J9bYaFUsHHuY0RNDM_58">
    <mxGraphModel dx="2137" dy="825" grid="1" gridSize="10" guides="1" tooltips="1" connect="1" arrows="1" fold="1" page="1" pageScale="1" pageWidth="827" pageHeight="1169" math="0" shadow="0">
      <root>
        <mxCell id="0" />
        <mxCell id="1" parent="0" />
        <mxCell id="3G7N8R3aMw-pVenwYJLN-1" value="" style="rounded=0;whiteSpace=wrap;html=1;fillColor=#d5e8d4;strokeColor=#82b366;" vertex="1" parent="1">
          <mxGeometry x="-100" y="70" width="480" height="550" as="geometry" />
        </mxCell>
        <mxCell id="3G7N8R3aMw-pVenwYJLN-2" value="资源编码" style="rounded=0;whiteSpace=wrap;html=1;fillColor=#f8cecc;strokeColor=#b85450;" vertex="1" parent="1">
          <mxGeometry x="-60" y="110" width="90" height="40" as="geometry" />
        </mxCell>
        <mxCell id="3G7N8R3aMw-pVenwYJLN-3" value="资源名称" style="rounded=0;whiteSpace=wrap;html=1;fillColor=#f8cecc;strokeColor=#b85450;" vertex="1" parent="1">
          <mxGeometry x="50" y="110" width="90" height="40" as="geometry" />
        </mxCell>
        <mxCell id="3G7N8R3aMw-pVenwYJLN-4" value="所属系统" style="rounded=0;whiteSpace=wrap;html=1;fillColor=#f8cecc;strokeColor=#b85450;" vertex="1" parent="1">
          <mxGeometry x="160" y="110" width="90" height="40" as="geometry" />
        </mxCell>
        <mxCell id="3G7N8R3aMw-pVenwYJLN-5" value="资源属性" style="rounded=0;whiteSpace=wrap;html=1;fillColor=#f8cecc;strokeColor=#b85450;" vertex="1" parent="1">
          <mxGeometry x="270" y="110" width="90" height="40" as="geometry" />
        </mxCell>
        <mxCell id="3G7N8R3aMw-pVenwYJLN-6" value="资源备注" style="rounded=0;whiteSpace=wrap;html=1;fillColor=#f8cecc;strokeColor=#b85450;" vertex="1" parent="1">
          <mxGeometry x="-60" y="160" width="90" height="40" as="geometry" />
        </mxCell>
        <mxCell id="3G7N8R3aMw-pVenwYJLN-7" value="资源类型" style="rounded=0;whiteSpace=wrap;html=1;fillColor=#f8cecc;strokeColor=#b85450;" vertex="1" parent="1">
          <mxGeometry x="50" y="160" width="90" height="40" as="geometry" />
        </mxCell>
        <mxCell id="3G7N8R3aMw-pVenwYJLN-8" value="资源状态" style="rounded=0;whiteSpace=wrap;html=1;fillColor=#f8cecc;strokeColor=#b85450;" vertex="1" parent="1">
          <mxGeometry x="160" y="160" width="90" height="40" as="geometry" />
        </mxCell>
        <mxCell id="3G7N8R3aMw-pVenwYJLN-9" value="父级资源id" style="rounded=0;whiteSpace=wrap;html=1;fillColor=#f8cecc;strokeColor=#b85450;" vertex="1" parent="1">
          <mxGeometry x="270" y="160" width="90" height="40" as="geometry" />
        </mxCell>
        <mxCell id="3G7N8R3aMw-pVenwYJLN-10" value="资源排序" style="rounded=0;whiteSpace=wrap;html=1;fillColor=#f8cecc;strokeColor=#b85450;" vertex="1" parent="1">
          <mxGeometry x="-60" y="220" width="90" height="40" as="geometry" />
        </mxCell>
        <mxCell id="3G7N8R3aMw-pVenwYJLN-11" value="资源地址" style="rounded=0;whiteSpace=wrap;html=1;fillColor=#f8cecc;strokeColor=#b85450;" vertex="1" parent="1">
          <mxGeometry x="50" y="220" width="90" height="40" as="geometry" />
        </mxCell>
        <mxCell id="3G7N8R3aMw-pVenwYJLN-12" value="操作类型" style="rounded=0;whiteSpace=wrap;html=1;fillColor=#f8cecc;strokeColor=#b85450;" vertex="1" parent="1">
          <mxGeometry x="160" y="220" width="90" height="40" as="geometry" />
        </mxCell>
        <mxCell id="3G7N8R3aMw-pVenwYJLN-13" value="首页原图" style="rounded=0;whiteSpace=wrap;html=1;fillColor=#f8cecc;strokeColor=#b85450;" vertex="1" parent="1">
          <mxGeometry x="270" y="220" width="90" height="40" as="geometry" />
        </mxCell>
        <mxCell id="3G7N8R3aMw-pVenwYJLN-14" value="操作权限" style="rounded=0;whiteSpace=wrap;html=1;fillColor=#fff2cc;strokeColor=#d6b656;" vertex="1" parent="1">
          <mxGeometry x="-70" y="290" width="420" height="70" as="geometry" />
        </mxCell>
        <mxCell id="3G7N8R3aMw-pVenwYJLN-15" value="数据权限" style="rounded=0;whiteSpace=wrap;html=1;fillColor=#fff2cc;strokeColor=#d6b656;" vertex="1" parent="1">
          <mxGeometry x="-70" y="370" width="420" height="70" as="geometry" />
        </mxCell>
        <mxCell id="3G7N8R3aMw-pVenwYJLN-16" value="1-直营 2-职能 3-渠道部 4-外部通用 5-外部&lt;br&gt;&lt;br&gt;" style="shape=callout;whiteSpace=wrap;html=1;perimeter=calloutPerimeter;" vertex="1" parent="1">
          <mxGeometry x="760" y="460" width="266" height="145" as="geometry" />
        </mxCell>
        <mxCell id="3G7N8R3aMw-pVenwYJLN-17" value="职能：【ALL】可操作全部数据&amp;nbsp; 【具体规则id】可操作部分数据&amp;nbsp;&lt;br&gt;直营：&lt;br&gt;渠道部：&lt;br&gt;外部通用：&lt;br&gt;&lt;div style=&quot;&quot;&gt;&lt;span style=&quot;background-color: initial;&quot;&gt;外部：&lt;/span&gt;&lt;/div&gt;" style="rounded=0;whiteSpace=wrap;html=1;align=left;" vertex="1" parent="1">
          <mxGeometry x="380" y="300" width="420" height="120" as="geometry" />
        </mxCell>
      </root>
    </mxGraphModel>
  </diagram>
</mxfile>
